<svg width="28" height="25" viewBox="0 0 28 25" fill="none" xmlns="http://www.w3.org/2000/svg">
<path d="M20.0468 2.625C20.7294 2.62443 21.4052 2.76012 22.0347 3.02414C22.6641 3.28815 23.2345 3.67517 23.7125 4.1625C24.6972 5.16223 25.2492 6.50921 25.2492 7.9125C25.2492 9.31579 24.6972 10.6628 23.7125 11.6625L14 21.4969L4.28747 11.6625C3.30271 10.6628 2.75071 9.31579 2.75071 7.9125C2.75071 6.50921 3.30271 5.16223 4.28747 4.1625C4.76568 3.67552 5.33614 3.2887 5.96551 3.02465C6.59489 2.7606 7.27057 2.6246 7.9531 2.6246C8.63562 2.6246 9.3113 2.7606 9.94068 3.02465C10.5701 3.2887 11.1405 3.67552 11.6187 4.1625L14 6.6L16.3718 4.18125C16.8483 3.68811 17.4194 3.29612 18.0508 3.02873C18.6822 2.76133 19.3611 2.62402 20.0468 2.625M20.0468 0.750003C19.1146 0.749212 18.1916 0.934554 17.332 1.29516C16.4723 1.65577 15.6933 2.18438 15.0406 2.85L14 3.9L12.9593 2.85C12.3059 2.18558 11.5267 1.65789 10.6671 1.29768C9.80764 0.937476 8.88503 0.751966 7.9531 0.751966C7.02116 0.751966 6.09855 0.937476 5.23905 1.29768C4.37954 1.65789 3.60033 2.18558 2.94685 2.85C1.61736 4.2034 0.872437 6.02471 0.872437 7.92188C0.872437 9.81904 1.61736 11.6404 2.94685 12.9938L14 24.1875L25.0531 12.9938C26.3826 11.6404 27.1275 9.81904 27.1275 7.92188C27.1275 6.02471 26.3826 4.2034 25.0531 2.85C24.3998 2.18522 23.6206 1.65717 22.7611 1.29662C21.9016 0.936077 20.9789 0.750259 20.0468 0.750003V0.750003Z" fill="white"/>
</svg>
