<svg width="22" height="28" viewBox="0 0 22 28" fill="none" xmlns="http://www.w3.org/2000/svg">
<path d="M20.4365 12.7461C19.8678 11.466 19.041 10.317 18.0078 9.37109L17.1553 8.58886C17.1263 8.56303 17.0915 8.5447 17.0538 8.53548C17.0161 8.52626 16.9767 8.52642 16.9391 8.53597C16.9015 8.54552 16.8669 8.56415 16.8381 8.59022C16.8094 8.6163 16.7875 8.64903 16.7744 8.68554L16.3936 9.77832C16.1562 10.4639 15.7197 11.1641 15.1016 11.8525C15.0605 11.8965 15.0137 11.9082 14.9814 11.9111C14.9492 11.9141 14.8994 11.9082 14.8555 11.8672C14.8145 11.832 14.7939 11.7793 14.7969 11.7266C14.9053 9.96289 14.3779 7.97363 13.2236 5.80859C12.2686 4.00976 10.9414 2.60644 9.2832 1.62793L8.07324 0.916011C7.91504 0.822261 7.71289 0.945308 7.72168 1.12988L7.78613 2.53613C7.83008 3.49707 7.71875 4.34668 7.45508 5.05273C7.13281 5.91699 6.66992 6.71972 6.07812 7.44043C5.66628 7.94129 5.19949 8.39433 4.68652 8.79101C3.45109 9.74071 2.44652 10.9576 1.74805 12.3506C1.05129 13.7557 0.68835 15.3027 0.6875 16.8711C0.6875 18.2539 0.959961 19.5928 1.49902 20.8555C2.01953 22.0712 2.77068 23.1745 3.71094 24.1045C4.66016 25.042 5.76172 25.7803 6.98926 26.293C8.26074 26.8262 9.6084 27.0957 11 27.0957C12.3916 27.0957 13.7393 26.8262 15.0107 26.2959C16.2353 25.7862 17.3488 25.0429 18.2891 24.1074C19.2383 23.1699 19.9824 22.0742 20.501 20.8584C21.0392 19.5991 21.3153 18.2435 21.3125 16.874C21.3125 15.4443 21.0195 14.0557 20.4365 12.7461V12.7461ZM16.8887 22.6865C15.3154 24.2451 13.2266 25.1006 11 25.1006C8.77344 25.1006 6.68457 24.2451 5.11133 22.6865C3.54395 21.1309 2.67969 19.0684 2.67969 16.874C2.67969 15.5996 2.9668 14.3779 3.53223 13.2412C4.08301 12.1309 4.90332 11.1377 5.89941 10.373C6.53468 9.88728 7.11087 9.32879 7.61621 8.70898C8.34863 7.81543 8.92285 6.81933 9.32129 5.75C9.48473 5.30889 9.60348 4.85251 9.67578 4.38769C10.3818 5.03808 10.9736 5.82324 11.4688 6.74316C12.4473 8.57714 12.8984 10.209 12.8105 11.5977C12.7895 11.9247 12.843 12.2523 12.9668 12.5557C13.0906 12.8592 13.2816 13.1306 13.5254 13.3496C13.7367 13.5405 13.9838 13.6874 14.2523 13.782C14.5209 13.8765 14.8056 13.9168 15.0898 13.9004C15.667 13.8711 16.1973 13.6162 16.584 13.1855C16.9736 12.749 17.3105 12.3037 17.5918 11.8496C18.002 12.374 18.3447 12.9453 18.6172 13.5605C19.083 14.6094 19.3203 15.7256 19.3203 16.874C19.3203 19.0684 18.4561 21.1338 16.8887 22.6865Z" fill="black"/>
</svg>
