<svg width="30" height="30" viewBox="0 0 30 30" fill="none" xmlns="http://www.w3.org/2000/svg">
<path d="M5.37379 27.8438C5.22754 28.6763 6.04879 29.3269 6.77254 28.9556L15.0038 24.7256L23.2332 28.9556C23.9569 29.3269 24.7782 28.6763 24.6319 27.8456L23.0757 18.9769L29.6794 12.6844C30.2982 12.0956 29.9794 11.0194 29.1507 10.9031L19.9669 9.59813L15.8719 1.48501C15.7939 1.32055 15.6708 1.1816 15.517 1.08431C15.3632 0.987012 15.1849 0.935364 15.0029 0.935364C14.8208 0.935364 14.6425 0.987012 14.4887 1.08431C14.3349 1.1816 14.2118 1.32055 14.1338 1.48501L10.0388 9.60001L0.855039 10.905C0.0281637 11.0213 -0.292461 12.0975 0.324414 12.6863L6.93004 18.9788L5.37379 27.8475V27.8438ZM14.5707 22.6556L7.65941 26.2069L8.96066 18.7875C8.99115 18.6167 8.97922 18.4411 8.92593 18.276C8.87264 18.1109 8.77962 17.9614 8.65504 17.8406L3.20629 12.6469L10.8038 11.5669C10.9611 11.5431 11.1103 11.4816 11.2387 11.3875C11.367 11.2935 11.4706 11.1697 11.5407 11.0269L15 4.16813L18.4632 11.0269C18.5332 11.1697 18.6368 11.2935 18.7652 11.3875C18.8935 11.4816 19.0427 11.5431 19.2 11.5669L26.7975 12.645L21.3488 17.8388C21.2239 17.9597 21.1307 18.1095 21.0774 18.2749C21.0241 18.4404 21.0124 18.6164 21.0432 18.7875L22.3444 26.2069L15.4332 22.6556C15.2995 22.5867 15.1513 22.5508 15.001 22.5508C14.8506 22.5508 14.7024 22.5867 14.5688 22.6556H14.5707Z" fill="black"/>
</svg>
