<svg width="26" height="24" viewBox="0 0 26 24" fill="none" xmlns="http://www.w3.org/2000/svg">
<path d="M25.6855 9.07031H18.1855C18.0566 9.07031 17.9512 9.17578 17.9512 9.30469V10.7109C17.9512 10.8398 18.0566 10.9453 18.1855 10.9453H25.6855C25.8145 10.9453 25.9199 10.8398 25.9199 10.7109V9.30469C25.9199 9.17578 25.8145 9.07031 25.6855 9.07031ZM21.7598 13.0547H18.1855C18.0566 13.0547 17.9512 13.1602 17.9512 13.2891V14.6953C17.9512 14.8242 18.0566 14.9297 18.1855 14.9297H21.7598C21.8887 14.9297 21.9941 14.8242 21.9941 14.6953V13.2891C21.9941 13.1602 21.8887 13.0547 21.7598 13.0547ZM11.9834 6.44824H10.7148C10.5332 6.44824 10.3867 6.59473 10.3867 6.77637V14.042C10.3867 14.1475 10.4365 14.2441 10.5215 14.3057L14.8838 17.4873C15.0303 17.5928 15.2354 17.5635 15.3408 17.417L16.0938 16.3887V16.3857C16.1992 16.2393 16.167 16.0342 16.0205 15.9287L12.3086 13.2451V6.77637C12.3115 6.59473 12.1621 6.44824 11.9834 6.44824V6.44824Z" fill="black"/>
<path d="M21.5781 16.7432H19.8848C19.7207 16.7432 19.5654 16.8281 19.4776 16.9688C19.1055 17.5576 18.6719 18.1025 18.1738 18.6006C17.3154 19.459 16.3164 20.1328 15.2061 20.6016C14.0547 21.0879 12.833 21.334 11.5733 21.334C10.3106 21.334 9.08889 21.0879 7.94045 20.6016C6.8301 20.1328 5.83108 19.459 4.97268 18.6006C4.11428 17.7422 3.44045 16.7432 2.9717 15.6328C2.48537 14.4844 2.23928 13.2627 2.23928 12C2.23928 10.7373 2.48537 9.51856 2.9717 8.3672C3.44045 7.25684 4.11428 6.25782 4.97268 5.39942C5.83108 4.54102 6.8301 3.8672 7.94045 3.39845C9.08889 2.91212 10.3135 2.66602 11.5733 2.66602C12.836 2.66602 14.0576 2.91212 15.2061 3.39845C16.3164 3.8672 17.3154 4.54102 18.1738 5.39942C18.6719 5.89747 19.1055 6.44239 19.4776 7.03126C19.5654 7.17188 19.7207 7.25684 19.8848 7.25684H21.5781C21.7803 7.25684 21.9092 7.04591 21.8184 6.8672C19.9082 3.06739 16.0352 0.597665 11.711 0.54786C5.3799 0.468759 0.121114 5.65138 0.109395 11.9766C0.0976763 18.3135 5.23342 23.4551 11.5703 23.4551C15.9502 23.4551 19.8877 20.9766 21.8184 17.1328C21.9092 16.9541 21.7774 16.7432 21.5781 16.7432V16.7432Z" fill="black"/>
</svg>
